<?xml version="1.0" encoding="UTF-8" standalone="no"?>
<!DOCTYPE svg PUBLIC "-//W3C//DTD SVG 20010904//EN"
              "http://www.w3.org/TR/2001/REC-SVG-20010904/DTD/svg10.dtd">

<svg xmlns="http://www.w3.org/2000/svg"
     width="5.88889in" height="6.65278in"
     viewBox="0 0 424 479">
  <path id="Selection"
        fill="white" stroke="white" stroke-width="1"
        d="M 238.00,17.58
           C 238.00,17.58 296.00,50.58 296.00,50.58
             296.00,50.58 389.00,103.58 389.00,103.58
             389.00,103.58 403.00,111.58 403.00,111.58
             413.93,117.85 417.98,120.81 418.00,134.00
             418.00,134.00 418.00,346.00 418.00,346.00
             417.97,362.48 409.72,364.59 397.00,371.85
             397.00,371.85 374.00,384.86 374.00,384.86
             374.00,384.86 267.00,445.85 267.00,445.85
             267.00,445.85 234.00,464.72 234.00,464.72
             229.77,467.12 221.31,472.45 217.00,473.47
             204.49,476.44 195.23,468.99 185.00,463.15
             185.00,463.15 124.00,428.42 124.00,428.42
             124.00,428.42 31.00,375.42 31.00,375.42
             31.00,375.42 17.00,367.42 17.00,367.42
             6.07,361.15 2.02,358.19 2.00,345.00
             2.00,345.00 2.00,133.00 2.00,133.00
             2.03,116.52 10.28,114.41 23.00,107.15
             23.00,107.15 47.00,93.58 47.00,93.58
             47.00,93.58 152.00,33.72 152.00,33.72
             152.00,33.72 183.00,16.00 183.00,16.00
             188.78,12.68 196.88,7.43 203.00,5.53
             217.63,3.12 225.93,10.66 238.00,17.58 Z
           M 194.00,57.15
           C 194.00,57.15 167.00,72.58 167.00,72.58
             167.00,72.58 80.00,122.15 80.00,122.15
             80.00,122.15 55.00,136.42 55.00,136.42
             55.00,136.42 43.99,143.61 43.99,143.61
             43.99,143.61 43.00,151.00 43.00,151.00
             43.00,151.00 43.00,327.00 43.00,327.00
             43.00,327.00 43.99,334.47 43.99,334.47
             43.99,334.47 51.00,339.42 51.00,339.42
             51.00,339.42 67.00,348.58 67.00,348.58
             67.00,348.58 143.00,391.85 143.00,391.85
             143.00,391.85 191.00,419.15 191.00,419.15
             191.00,419.15 211.00,429.22 211.00,429.22
             211.00,429.22 231.00,419.00 231.00,419.00
             231.00,419.00 277.00,392.85 277.00,392.85
             277.00,392.85 353.00,349.42 353.00,349.42
             353.00,349.42 369.00,340.28 369.00,340.28
             369.00,340.28 376.01,335.39 376.01,335.39
             376.01,335.39 377.00,328.00 377.00,328.00
             377.00,328.00 377.00,152.00 377.00,152.00
             377.00,152.00 376.01,144.53 376.01,144.53
             376.01,144.53 365.00,137.28 365.00,137.28
             365.00,137.28 340.00,123.15 340.00,123.15
             340.00,123.15 250.00,71.85 250.00,71.85
             250.00,71.85 224.00,57.00 224.00,57.00
             224.00,57.00 209.00,49.78 209.00,49.78
             209.00,49.78 194.00,57.15 194.00,57.15 Z
           M 230.00,132.00
           C 230.00,132.00 230.00,284.00 230.00,284.00
             230.00,284.00 230.00,300.00 230.00,300.00
             230.00,311.80 229.85,323.21 216.00,327.21
             213.50,327.94 210.60,328.09 208.00,327.96
             194.81,327.27 190.02,316.62 190.00,305.00
             190.00,305.00 190.00,158.00 190.00,158.00
             190.00,158.00 190.00,139.00 190.00,139.00
             190.00,124.07 190.10,113.66 208.00,110.48
             221.46,109.71 229.84,118.90 230.00,132.00 Z
           M 323.36,169.00
           C 324.11,171.57 324.00,174.35 324.00,177.00
             324.00,177.00 324.00,307.00 324.00,307.00
             323.99,311.79 324.14,314.64 321.64,319.00
             314.57,331.27 296.56,332.35 287.53,321.83
             283.50,317.12 283.03,312.89 283.00,307.00
             283.00,307.00 283.00,194.00 283.00,194.00
             283.00,178.06 279.68,161.30 299.00,155.53
             309.34,153.85 320.24,158.20 323.36,169.00 Z
           M 137.00,230.00
           C 137.00,230.00 137.00,304.00 137.00,304.00
             136.99,309.77 136.81,315.06 133.35,320.00
             125.55,331.13 109.24,332.20 100.22,321.96
             96.15,317.34 95.07,310.96 95.00,305.00
             95.00,305.00 95.00,230.00 95.00,230.00
             95.14,218.42 98.60,210.94 110.00,206.64
             127.37,203.15 136.97,212.99 137.00,230.00 Z" />
</svg>
